<svg id="visual" viewBox="0 0 900 600" width="900" height="600" xmlns="http://www.w3.org/2000/svg" xmlns:xlink="http://www.w3.org/1999/xlink" version="1.1"><rect x="0" y="0" width="900" height="600" fill="#000000"></rect><path d="M591 600L572.8 585.7C554.7 571.3 518.3 542.7 524.2 514.2C530 485.7 578 457.3 600.7 428.8C623.3 400.3 620.7 371.7 611.2 343C601.7 314.3 585.3 285.7 586.5 257C587.7 228.3 606.3 199.7 608.8 171.2C611.3 142.7 597.7 114.3 568.7 85.8C539.7 57.3 495.3 28.7 473.2 14.3L451 0L900 0L900 14.3C900 28.7 900 57.3 900 85.8C900 114.3 900 142.7 900 171.2C900 199.7 900 228.3 900 257C900 285.7 900 314.3 900 343C900 371.7 900 400.3 900 428.8C900 457.3 900 485.7 900 514.2C900 542.7 900 571.3 900 585.7L900 600Z" fill="#210b42"></path><path d="M677 600L665.2 585.7C653.3 571.3 629.7 542.7 621.2 514.2C612.7 485.7 619.3 457.3 621 428.8C622.7 400.3 619.3 371.7 619 343C618.7 314.3 621.3 285.7 630.2 257C639 228.3 654 199.7 657.8 171.2C661.7 142.7 654.3 114.3 631.2 85.8C608 57.3 569 28.7 549.5 14.3L530 0L900 0L900 14.3C900 28.7 900 57.3 900 85.8C900 114.3 900 142.7 900 171.2C900 199.7 900 228.3 900 257C900 285.7 900 314.3 900 343C900 371.7 900 400.3 900 428.8C900 457.3 900 485.7 900 514.2C900 542.7 900 571.3 900 585.7L900 600Z" fill="#241141"></path><path d="M706 600L710.7 585.7C715.3 571.3 724.7 542.7 725.8 514.2C727 485.7 720 457.3 705.5 428.8C691 400.3 669 371.7 655.7 343C642.3 314.3 637.7 285.7 638.8 257C640 228.3 647 199.7 660.3 171.2C673.7 142.7 693.3 114.3 703.7 85.8C714 57.3 715 28.7 715.5 14.3L716 0L900 0L900 14.3C900 28.7 900 57.3 900 85.8C900 114.3 900 142.7 900 171.2C900 199.7 900 228.3 900 257C900 285.7 900 314.3 900 343C900 371.7 900 400.3 900 428.8C900 457.3 900 485.7 900 514.2C900 542.7 900 571.3 900 585.7L900 600Z" fill="#271740"></path><path d="M775 600L762.3 585.7C749.7 571.3 724.3 542.7 714.8 514.2C705.3 485.7 711.7 457.3 722.7 428.8C733.7 400.3 749.3 371.7 755.5 343C761.7 314.3 758.3 285.7 756.5 257C754.7 228.3 754.3 199.7 751.2 171.2C748 142.7 742 114.3 747.3 85.8C752.7 57.3 769.3 28.7 777.7 14.3L786 0L900 0L900 14.3C900 28.7 900 57.3 900 85.8C900 114.3 900 142.7 900 171.2C900 199.7 900 228.3 900 257C900 285.7 900 314.3 900 343C900 371.7 900 400.3 900 428.8C900 457.3 900 485.7 900 514.2C900 542.7 900 571.3 900 585.7L900 600Z" fill="#2a1c3f"></path><path d="M813 600L807.5 585.7C802 571.3 791 542.7 793.5 514.2C796 485.7 812 457.3 810.2 428.8C808.3 400.3 788.7 371.7 793.3 343C798 314.3 827 285.7 841.2 257C855.3 228.3 854.7 199.7 848.8 171.2C843 142.7 832 114.3 822.5 85.8C813 57.3 805 28.7 801 14.3L797 0L900 0L900 14.3C900 28.7 900 57.3 900 85.8C900 114.3 900 142.7 900 171.2C900 199.7 900 228.3 900 257C900 285.7 900 314.3 900 343C900 371.7 900 400.3 900 428.8C900 457.3 900 485.7 900 514.2C900 542.7 900 571.3 900 585.7L900 600Z" fill="#2c213e"></path></svg>